<?xml version="1.0" encoding="utf-8"?>
<!-- Generator: Adobe Illustrator 26.2.1, SVG Export Plug-In . SVG Version: 6.00 Build 0)  -->
<svg version="1.1" id="Camada_1" xmlns="http://www.w3.org/2000/svg" xmlns:xlink="http://www.w3.org/1999/xlink" x="0px" y="0px"
	 viewBox="0 0 300 300" style="enable-background:new 0 0 300 300;" xml:space="preserve">
<style type="text/css">
	.st0{fill:#03A303;}
	.st1{fill:#666666;}
</style>
<path class="st0" d="M59.87,149.82c-1.35-3.16-3.07-7.94-4-13.93c-2.98-19.24,4.78-34.31,7.02-38.52
	c7.48-14.04,18.29-21.69,23.72-25c-4.01,2.72-18.57,13.27-24.42,33.67c-5.86,20.45,0.93,37.15,2.89,41.57
	c5.72-2.3,14.05-6.58,21.82-14.47c1.14-1.16,10.1-10.36,13.21-20.25c1.8-5.7,2.23-10.78,2.24-10.87l0,0
	c0.96-6.41,1.31-12.16,1.57-15.06c0.55-6.07,0.86-9.49,2.58-13.7c2.6-6.39,6.59-10.12,7.41-10.87c4.74-4.33,9.88-6.01,12.73-6.71
	c-6.01-1.6-15.81-3.38-27.54-1.63c-3.45,0.51-30.33,4.97-46.63,29.38c-12.34,18.49-18.26,47.9-5.02,63.42
	c2.14,2.5,4.36,4.17,5.94,5.2c2.41,5.44,9.2,18.84,24.45,28.84c15.72,10.3,31.23,10.97,37.14,10.92c-7.35-1.4-22.8-5.4-37.13-18.16
	C68.28,165.14,62.84,155.93,59.87,149.82z"/>
<path class="st0" d="M199.22,37.32c3.31,0.93,8.11,2.57,13.36,5.6c16.86,9.73,23.76,25.21,25.64,29.59
	c6.27,14.63,5.46,27.84,4.64,34.14c0.39-4.83,1.28-22.79-10.97-40.12c-12.27-17.37-29.55-22.54-34.22-23.77
	c-1.79,5.9-3.67,15.07-2.38,26.08c0.19,1.62,1.76,14.36,7.52,22.98c3.32,4.97,7.01,8.49,7.07,8.55l0,0
	c4.39,4.76,8.66,8.64,10.76,10.66c4.38,4.23,6.86,6.61,9.07,10.59c3.35,6.02,3.77,11.48,3.84,12.58c0.41,6.41-1.5,11.47-2.74,14.12
	c5.01-3.69,12.54-10.21,18.52-20.45c1.76-3.01,15.12-26.76,6.28-54.75c-6.69-21.2-25.91-44.23-46.31-43.62
	c-3.29,0.1-5.98,0.79-7.77,1.38c-5.75-1.53-20.45-4.62-37.79,1.01c-17.88,5.8-28.1,17.48-31.77,22.12
	c5.69-4.86,18.49-14.4,37.41-17.58C182.02,34.29,192.61,35.81,199.22,37.32z"/>
<path class="st0" d="M232.11,209.42c-2.38,2.49-6.09,5.95-11.23,9.16c-16.51,10.31-33.43,9.11-38.17,8.7
	c-15.86-1.35-27.14-8.28-32.32-11.96c4.08,2.62,19.51,11.84,40.57,9.19c21.1-2.66,33.78-15.47,37.07-19.02
	c-4.37-4.35-11.58-10.32-21.9-14.36c-1.51-0.59-13.5-5.2-23.81-4.17c-5.95,0.59-10.79,2.19-10.87,2.22l0,0
	c-6.27,1.64-11.7,3.58-14.46,4.48c-5.79,1.88-9.06,2.94-13.61,3.03c-6.89,0.13-11.9-2.08-12.9-2.53c-5.85-2.66-9.41-6.72-11.17-9.06
	c0.89,6.16,3.12,15.87,9.34,25.96c1.83,2.97,16.5,25.92,45.36,31.3c21.86,4.07,51.22-2.07,60.28-20.35
	c1.46-2.95,2.12-5.65,2.44-7.51c4.05-4.35,13.7-15.87,16.88-33.83c3.29-18.5-2.21-33.02-4.58-38.44c1.61,7.31,4.01,23.09-2.08,41.28
	C242.88,195.67,236.56,204.3,232.11,209.42z"/>
<g>
	<g>
	</g>
</g>
<g>
	<g>
		<path class="st1" d="M116.8,102.67h4.59l15.69,40.63l-0.82,0.88v-41.52h4.83v49.45h-4.66l-15.62-40.63l0.82-0.89v41.52h-4.83
			V102.67z"/>
		<path class="st1" d="M147.91,102.67h4.9v49.48h-4.9V102.67z M151.48,128.4h10.55c1,0,1.86-0.22,2.59-0.66s1.28-1.09,1.65-1.94
			c0.37-0.85,0.56-1.88,0.56-3.08v-9.63c0-1.25-0.19-2.31-0.56-3.18c-0.38-0.87-0.92-1.54-1.63-1.99c-0.71-0.45-1.58-0.68-2.6-0.68
			h-10.55v-4.56h10.31c2.09,0,3.88,0.41,5.36,1.23c1.48,0.82,2.62,2,3.4,3.56c0.78,1.55,1.17,3.43,1.17,5.63v9.7
			c0,2.16-0.39,3.99-1.17,5.51c-0.78,1.52-1.92,2.68-3.4,3.47c-1.49,0.79-3.27,1.19-5.36,1.19h-10.31V128.4z"/>
		<path class="st1" d="M178.37,102.64h4.9v49.52h-4.9V102.64z M181.4,126.66h9.15c1.47,0,2.74-0.27,3.79-0.82s1.86-1.34,2.42-2.4
			c0.56-1.05,0.83-2.32,0.83-3.79v-5.1c0-1.54-0.28-2.86-0.83-3.96c-0.56-1.1-1.36-1.94-2.42-2.52s-2.32-0.87-3.79-0.87h-9.15v-4.56
			h8.81c2.59,0,4.8,0.44,6.64,1.31c1.84,0.87,3.24,2.16,4.2,3.85c0.96,1.69,1.45,3.72,1.45,6.07v5.79c0,2.43-0.48,4.51-1.45,6.24
			c-0.96,1.74-2.37,3.06-4.2,3.96c-1.84,0.91-4.05,1.36-6.64,1.36h-8.81V126.66z M191.64,129.69l4.36-1.57l7.9,24.03h-5.68
			L191.64,129.69z"/>
	</g>
</g>
</svg>
