<?xml version="1.0" encoding="utf-8"?>
<!-- Generator: Adobe Illustrator 26.2.1, SVG Export Plug-In . SVG Version: 6.00 Build 0)  -->
<svg version="1.1" id="Camada_1" xmlns="http://www.w3.org/2000/svg" xmlns:xlink="http://www.w3.org/1999/xlink" x="0px" y="0px"
	 viewBox="0 0 100 100" style="enable-background:new 0 0 100 100;" xml:space="preserve">
<style type="text/css">
	.st0{fill:#03A303;}
	.st1{fill:#666666;}
</style>
<path class="st0" d="M21.46,49.3c-0.18-0.41-0.4-1.03-0.52-1.81c-0.39-2.49,0.62-4.45,0.91-4.99c0.97-1.82,2.37-2.81,3.08-3.24
	c-0.52,0.35-2.41,1.72-3.17,4.37c-0.76,2.65,0.12,4.82,0.37,5.39c0.74-0.3,1.82-0.85,2.83-1.88c0.15-0.15,1.31-1.34,1.71-2.63
	c0.23-0.74,0.29-1.4,0.29-1.41l0,0c0.12-0.83,0.17-1.58,0.2-1.95c0.07-0.79,0.11-1.23,0.33-1.78c0.34-0.83,0.85-1.31,0.96-1.41
	c0.62-0.56,1.28-0.78,1.65-0.87c-0.78-0.21-2.05-0.44-3.57-0.21c-0.45,0.07-3.93,0.64-6.05,3.81c-1.6,2.4-2.37,6.21-0.65,8.22
	c0.28,0.32,0.57,0.54,0.77,0.67c0.31,0.71,1.19,2.44,3.17,3.74c2.04,1.34,4.05,1.42,4.82,1.42c-0.95-0.18-2.96-0.7-4.81-2.35
	C22.55,51.28,21.85,50.09,21.46,49.3z"/>
<path class="st0" d="M39.53,34.71c0.43,0.12,1.05,0.33,1.73,0.73c2.19,1.26,3.08,3.27,3.32,3.84c0.81,1.9,0.71,3.61,0.6,4.43
	c0.05-0.63,0.17-2.96-1.42-5.2c-1.59-2.25-3.83-2.92-4.44-3.08c-0.23,0.77-0.48,1.95-0.31,3.38c0.02,0.21,0.23,1.86,0.97,2.98
	c0.43,0.64,0.91,1.1,0.92,1.11l0,0c0.57,0.62,1.12,1.12,1.39,1.38c0.57,0.55,0.89,0.86,1.18,1.37c0.43,0.78,0.49,1.49,0.5,1.63
	c0.05,0.83-0.19,1.49-0.36,1.83c0.65-0.48,1.63-1.32,2.4-2.65c0.23-0.39,1.96-3.47,0.81-7.1c-0.87-2.75-3.36-5.73-6-5.66
	c-0.43,0.01-0.78,0.1-1.01,0.18c-0.75-0.2-2.65-0.6-4.9,0.13c-2.32,0.75-3.64,2.27-4.12,2.87c0.74-0.63,2.4-1.87,4.85-2.28
	C37.3,34.32,38.68,34.51,39.53,34.71z"/>
<path class="st0" d="M43.8,57.03c-0.31,0.32-0.79,0.77-1.46,1.19c-2.14,1.34-4.33,1.18-4.95,1.13c-2.06-0.17-3.52-1.07-4.19-1.55
	c0.53,0.34,2.53,1.54,5.26,1.19c2.74-0.34,4.38-2.01,4.81-2.47c-0.57-0.56-1.5-1.34-2.84-1.86c-0.2-0.08-1.75-0.67-3.09-0.54
	c-0.77,0.08-1.4,0.28-1.41,0.29l0,0c-0.81,0.21-1.52,0.46-1.88,0.58c-0.75,0.24-1.17,0.38-1.76,0.39c-0.89,0.02-1.54-0.27-1.67-0.33
	c-0.76-0.34-1.22-0.87-1.45-1.17c0.12,0.8,0.4,2.06,1.21,3.37c0.24,0.39,2.14,3.36,5.88,4.06c2.83,0.53,6.64-0.27,7.82-2.64
	c0.19-0.38,0.27-0.73,0.32-0.97c0.53-0.56,1.78-2.06,2.19-4.39c0.43-2.4-0.29-4.28-0.59-4.98c0.21,0.95,0.52,2.99-0.27,5.35
	C45.19,55.24,44.37,56.36,43.8,57.03z"/>
<g>
	<g>
	</g>
</g>
<g>
	<g>
		<path class="st1" d="M54.61,36.93h1.62l5.54,14.34l-0.29,0.31V36.93h1.71v17.45h-1.65l-5.51-14.34l0.29-0.31v14.65h-1.71V36.93z"
			/>
		<path class="st1" d="M65.58,36.93h1.73v17.46h-1.73V36.93z M66.85,46.01h3.72c0.35,0,0.66-0.08,0.91-0.23
			c0.26-0.16,0.45-0.38,0.58-0.68s0.2-0.66,0.2-1.09v-3.4c0-0.44-0.07-0.81-0.2-1.12c-0.13-0.31-0.32-0.54-0.58-0.7
			c-0.25-0.16-0.56-0.24-0.92-0.24h-3.72v-1.61h3.64c0.74,0,1.37,0.14,1.89,0.43c0.52,0.29,0.92,0.71,1.2,1.25
			c0.28,0.55,0.41,1.21,0.41,1.99v3.42c0,0.76-0.14,1.41-0.41,1.95c-0.28,0.54-0.68,0.94-1.2,1.23s-1.16,0.42-1.89,0.42h-3.64V46.01
			z"/>
		<path class="st1" d="M76.33,36.92h1.73v17.48h-1.73V36.92z M77.4,45.4h3.23c0.52,0,0.97-0.1,1.34-0.29
			c0.37-0.19,0.66-0.47,0.85-0.85c0.2-0.37,0.29-0.82,0.29-1.34v-1.8c0-0.54-0.1-1.01-0.29-1.4c-0.2-0.39-0.48-0.68-0.85-0.89
			s-0.82-0.31-1.34-0.31H77.4v-1.61h3.11c0.91,0,1.69,0.15,2.34,0.46c0.65,0.31,1.14,0.76,1.48,1.36c0.34,0.6,0.51,1.31,0.51,2.14
			v2.04c0,0.86-0.17,1.59-0.51,2.2c-0.34,0.61-0.83,1.08-1.48,1.4S81.43,47,80.51,47H77.4V45.4z M81.02,46.46l1.54-0.55l2.79,8.48
			h-2.01L81.02,46.46z"/>
	</g>
</g>
</svg>
